{
  "accessors": [
    {
      "bufferView": 2,
      "componentType": 5126,
      "count": 64,
      "max": [
        11.949580192565918,
        -0.7666599750518799,
        9.792759895324707
      ],
      "min": [
        -4.773560047149658,
        -1.040410041809082,
        -0.24459999799728394
      ],
      "type": "VEC3"
    },
    {
      "bufferView": 2,
      "byteOffset": 768,
      "componentType": 5126,
      "count": 64,
      "max": [
        -0.0,
        1.0,
        -0.0
      ],
      "min": [
        -0.0,
        1.0,
        -0.0
      ],
      "type": "VEC3"
    },
    {
      "bufferView": 1,
      "componentType": 5126,
      "count": 64,
      "max": [
        0.9936000108718872,
        0.98444002866745
      ],
      "min": [
        0.06942000240087509,
        0.04718000069260597
      ],
      "type": "VEC2"
    },
    {
      "bufferView": 0,
      "componentType": 5125,
      "count": 180,
      "type": "SCALAR"
    },
    {
      "bufferView": 2,
      "byteOffset": 1536,
      "componentType": 5126,
      "count": 232,
      "max": [
        12.608599662780762,
        31.5650691986084,
        0.031380001455545425
      ],
      "min": [
        -7.026020050048828,
        -1.7193100452423096,
        0.03136000037193298
      ],
      "type": "VEC3"
    },
    {
      "bufferView": 2,
      "byteOffset": 4320,
      "componentType": 5126,
      "count": 232,
      "max": [
        0.0,
        -0.0,
        1.0
      ],
      "min": [
        0.0,
        -0.0,
        1.0
      ],
      "type": "VEC3"
    },
    {
      "bufferView": 1,
      "byteOffset": 512,
      "componentType": 5126,
      "count": 232,
      "max": [
        0.9648100137710571,
        0.9089800119400024
      ],
      "min": [
        0.015469999983906746,
        0.044029999524354935
      ],
      "type": "VEC2"
    },
    {
      "bufferView": 0,
      "byteOffset": 720,
      "componentType": 5125,
      "count": 678,
      "type": "SCALAR"
    },
    {
      "bufferView": 2,
      "byteOffset": 7104,
      "componentType": 5126,
      "count": 1528,
      "max": [
        12.608599662780762,
        31.5650691986084,
        9.792759895324707
      ],
      "min": [
        -7.026020050048828,
        -1.7193100452423096,
        -0.32975998520851135
      ],
      "type": "VEC3"
    },
    {
      "bufferView": 2,
      "byteOffset": 25440,
      "componentType": 5126,
      "count": 1528,
      "max": [
        1.0,
        1.0,
        1.0
      ],
      "min": [
        -1.0,
        -1.0,
        -1.0
      ],
      "type": "VEC3"
    },
    {
      "bufferView": 1,
      "byteOffset": 2368,
      "componentType": 5126,
      "count": 1528,
      "max": [
        0.794950008392334,
        0.7007899880409241
      ],
      "min": [
        0.21558000147342682,
        0.21254000067710876
      ],
      "type": "VEC2"
    },
    {
      "bufferView": 0,
      "byteOffset": 3432,
      "componentType": 5125,
      "count": 2634,
      "type": "SCALAR"
    },
    {
      "bufferView": 2,
      "byteOffset": 43776,
      "componentType": 5126,
      "count": 21822,
      "max": [
        4.19428014755249,
        -0.2955099940299988,
        -13.049699783325195
      ],
      "min": [
        2.426100015640259,
        -1.7632499933242798,
        -17.27396011352539
      ],
      "type": "VEC3"
    },
    {
      "bufferView": 2,
      "byteOffset": 305640,
      "componentType": 5126,
      "count": 21822,
      "max": [
        0.9998680949211121,
        0.9999640583992004,
        0.9998975396156311
      ],
      "min": [
        -0.9997342824935913,
        -0.9999202489852905,
        -0.9999826550483704
      ],
      "type": "VEC3"
    },
    {
      "bufferView": 1,
      "byteOffset": 14592,
      "componentType": 5126,
      "count": 21822,
      "max": [
        0.9969000220298767,
        0.9969000220298767
      ],
      "min": [
        0.003100000089034438,
        0.003100000089034438
      ],
      "type": "VEC2"
    },
    {
      "bufferView": 0,
      "byteOffset": 13968,
      "componentType": 5125,
      "count": 55296,
      "type": "SCALAR"
    },
    {
      "bufferView": 2,
      "byteOffset": 567504,
      "componentType": 5126,
      "count": 29125,
      "max": [
        3.392620086669922,
        -0.4100100100040436,
        -13.59164047241211
      ],
      "min": [
        -2.396820068359375,
        -5.072460174560547,
        -15.300820350646973
      ],
      "type": "VEC3"
    },
    {
      "bufferView": 2,
      "byteOffset": 917004,
      "componentType": 5126,
      "count": 29125,
      "max": [
        0.9996241927146912,
        0.9992955327033997,
        0.9999071955680847
      ],
      "min": [
        -0.9999602437019348,
        -0.9992462992668152,
        -0.9996315836906433
      ],
      "type": "VEC3"
    },
    {
      "bufferView": 1,
      "byteOffset": 189168,
      "componentType": 5126,
      "count": 29125,
      "max": [
        0.9954699873924255,
        0.9954699873924255
      ],
      "min": [
        0.004530000034719706,
        0.004530000034719706
      ],
      "type": "VEC2"
    },
    {
      "bufferView": 0,
      "byteOffset": 235152,
      "componentType": 5125,
      "count": 70560,
      "type": "SCALAR"
    },
    {
      "bufferView": 2,
      "byteOffset": 1266504,
      "componentType": 5126,
      "count": 21683,
      "max": [
        -1.3228600025177002,
        -0.37883999943733215,
        -13.046079635620117
      ],
      "min": [
        -3.3487699031829834,
        -1.8293499946594238,
        -17.28070068359375
      ],
      "type": "VEC3"
    },
    {
      "bufferView": 2,
      "byteOffset": 1526700,
      "componentType": 5126,
      "count": 21683,
      "max": [
        0.9999351501464844,
        0.9999561905860901,
        0.9999616742134094
      ],
      "min": [
        -0.9998704791069031,
        -0.9999620318412781,
        -0.9999743103981018
      ],
      "type": "VEC3"
    },
    {
      "bufferView": 1,
      "byteOffset": 422168,
      "componentType": 5126,
      "count": 21683,
      "max": [
        0.9969099760055542,
        0.9969099760055542
      ],
      "min": [
        0.0030900000128895044,
        0.0030900000128895044
      ],
      "type": "VEC2"
    },
    {
      "bufferView": 0,
      "byteOffset": 517392,
      "componentType": 5125,
      "count": 55296,
      "type": "SCALAR"
    },
    {
      "bufferView": 2,
      "byteOffset": 1786896,
      "componentType": 5126,
      "count": 22010,
      "max": [
        3.2280399799346924,
        -2.3321099281311035,
        -13.04638957977295
      ],
      "min": [
        1.1774100065231323,
        -4.513329982757568,
        -17.242530822753906
      ],
      "type": "VEC3"
    },
    {
      "bufferView": 2,
      "byteOffset": 2051016,
      "componentType": 5126,
      "count": 22010,
      "max": [
        0.9997351169586182,
        0.9999815821647644,
        0.9999188184738159
      ],
      "min": [
        -0.9997155070304871,
        -0.9998266696929932,
        -0.9999750256538391
      ],
      "type": "VEC3"
    },
    {
      "bufferView": 1,
      "byteOffset": 595632,
      "componentType": 5126,
      "count": 22010,
      "max": [
        0.9969000220298767,
        0.9969000220298767
      ],
      "min": [
        0.003100000089034438,
        0.003100000089034438
      ],
      "type": "VEC2"
    },
    {
      "bufferView": 0,
      "byteOffset": 738576,
      "componentType": 5125,
      "count": 55296,
      "type": "SCALAR"
    },
    {
      "bufferView": 2,
      "byteOffset": 2315136,
      "componentType": 5126,
      "count": 21844,
      "max": [
        -0.6763499975204468,
        -3.7209999561309814,
        -14.020959854125977
      ],
      "min": [
        -2.342560052871704,
        -6.8766398429870605,
        -17.24673080444336
      ],
      "type": "VEC3"
    },
    {
      "bufferView": 2,
      "byteOffset": 2577264,
      "componentType": 5126,
      "count": 21844,
      "max": [
        0.9999613165855408,
        0.99993896484375,
        0.9999613165855408
      ],
      "min": [
        -0.9999644160270691,
        -0.9999173879623413,
        -0.9999786019325256
      ],
      "type": "VEC3"
    },
    {
      "bufferView": 1,
      "byteOffset": 771712,
      "componentType": 5126,
      "count": 21844,
      "max": [
        0.9969099760055542,
        0.9969099760055542
      ],
      "min": [
        0.0030900000128895044,
        0.0030900000128895044
      ],
      "type": "VEC2"
    },
    {
      "bufferView": 0,
      "byteOffset": 959760,
      "componentType": 5125,
      "count": 55296,
      "type": "SCALAR"
    }
  ],
  "asset": {
    "extras": {
      "author": "FDU_oficial (https://sketchfab.com/FDU_oficial)",
      "license": "CC-BY-4.0 (http://creativecommons.org/licenses/by/4.0/)",
      "source": "https://sketchfab.com/3d-models/the-breach-e8df9e25773f4fd6b30a0f69d34d41ee",
      "title": "The Breach"
    },
    "generator": "Sketchfab-12.65.0",
    "version": "2.0"
  },
  "bufferViews": [
    {
      "buffer": 0,
      "byteLength": 1180944,
      "name": "floatBufferViews",
      "target": 34963
    },
    {
      "buffer": 0,
      "byteLength": 946464,
      "byteOffset": 1180944,
      "byteStride": 8,
      "name": "floatBufferViews",
      "target": 34962
    },
    {
      "buffer": 0,
      "byteLength": 2839392,
      "byteOffset": 2127408,
      "byteStride": 12,
      "name": "floatBufferViews",
      "target": 34962
    }
  ],
  "buffers": [
    {
      "byteLength": 4966800,
      "uri": "scene.bin"
    }
  ],
  "extensionsUsed": [
    "KHR_materials_unlit"
  ],
  "images": [
    {
      "uri": "textures/Material.013_baseColor.png"
    },
    {
      "uri": "textures/material_baseColor.png"
    },
    {
      "uri": "textures/Material.012_baseColor.png"
    },
    {
      "uri": "textures/Material.004_baseColor.png"
    },
    {
      "uri": "textures/Material.011_baseColor.png"
    },
    {
      "uri": "textures/material_5_baseColor.png"
    },
    {
      "uri": "textures/material_6_baseColor.png"
    }
  ],
  "materials": [
    {
      "doubleSided": true,
      "extensions": {
        "KHR_materials_unlit": {}
      },
      "name": "Material.013",
      "pbrMetallicRoughness": {
        "baseColorTexture": {
          "index": 0
        },
        "metallicFactor": 0.0
      }
    },
    {
      "doubleSided": true,
      "extensions": {
        "KHR_materials_unlit": {}
      },
      "name": "material",
      "pbrMetallicRoughness": {
        "baseColorTexture": {
          "index": 1
        },
        "metallicFactor": 0.0
      }
    },
    {
      "doubleSided": true,
      "extensions": {
        "KHR_materials_unlit": {}
      },
      "name": "Material.012",
      "pbrMetallicRoughness": {
        "baseColorTexture": {
          "index": 2
        },
        "metallicFactor": 0.0
      }
    },
    {
      "doubleSided": true,
      "extensions": {
        "KHR_materials_unlit": {}
      },
      "name": "Material.004",
      "pbrMetallicRoughness": {
        "baseColorTexture": {
          "index": 3
        },
        "metallicFactor": 0.0
      }
    },
    {
      "doubleSided": true,
      "extensions": {
        "KHR_materials_unlit": {}
      },
      "name": "Material.011",
      "pbrMetallicRoughness": {
        "baseColorTexture": {
          "index": 4
        },
        "metallicFactor": 0.0
      }
    },
    {
      "doubleSided": true,
      "extensions": {
        "KHR_materials_unlit": {}
      },
      "name": "material_5",
      "pbrMetallicRoughness": {
        "baseColorTexture": {
          "index": 5
        },
        "metallicFactor": 0.0
      }
    },
    {
      "doubleSided": true,
      "extensions": {
        "KHR_materials_unlit": {}
      },
      "name": "material_6",
      "pbrMetallicRoughness": {
        "baseColorTexture": {
          "index": 6
        },
        "metallicFactor": 0.0
      }
    },
    {
      "alphaMode": "BLEND",
      "doubleSided": true,
      "extensions": {
        "KHR_materials_unlit": {}
      },
      "name": "Material.010",
      "pbrMetallicRoughness": {
        "baseColorFactor": [
          0.5399202322,
          0.5399202322,
          0.5399202322,
          0.4105870469
        ],
        "metallicFactor": 0.0
      }
    }
  ],
  "meshes": [
    {
      "name": "Cube.022_0",
      "primitives": [
        {
          "attributes": {
            "NORMAL": 1,
            "POSITION": 0,
            "TEXCOORD_0": 2
          },
          "indices": 3,
          "material": 5,
          "mode": 4
        }
      ]
    },
    {
      "name": "Cube.022_1",
      "primitives": [
        {
          "attributes": {
            "NORMAL": 5,
            "POSITION": 4,
            "TEXCOORD_0": 6
          },
          "indices": 7,
          "material": 6,
          "mode": 4
        }
      ]
    },
    {
      "name": "Cube.022_2",
      "primitives": [
        {
          "attributes": {
            "NORMAL": 9,
            "POSITION": 8,
            "TEXCOORD_0": 10
          },
          "indices": 11,
          "material": 7,
          "mode": 4
        }
      ]
    },
    {
      "name": "Cube_0",
      "primitives": [
        {
          "attributes": {
            "NORMAL": 13,
            "POSITION": 12,
            "TEXCOORD_0": 14
          },
          "indices": 15,
          "material": 4,
          "mode": 4
        }
      ]
    },
    {
      "name": "Cube.011_0",
      "primitives": [
        {
          "attributes": {
            "NORMAL": 17,
            "POSITION": 16,
            "TEXCOORD_0": 18
          },
          "indices": 19,
          "material": 3,
          "mode": 4
        }
      ]
    },
    {
      "name": "Cube.012_0",
      "primitives": [
        {
          "attributes": {
            "NORMAL": 21,
            "POSITION": 20,
            "TEXCOORD_0": 22
          },
          "indices": 23,
          "material": 2,
          "mode": 4
        }
      ]
    },
    {
      "name": "Cube.013_0",
      "primitives": [
        {
          "attributes": {
            "NORMAL": 25,
            "POSITION": 24,
            "TEXCOORD_0": 26
          },
          "indices": 27,
          "material": 1,
          "mode": 4
        }
      ]
    },
    {
      "name": "Cube.015_0",
      "primitives": [
        {
          "attributes": {
            "NORMAL": 29,
            "POSITION": 28,
            "TEXCOORD_0": 30
          },
          "indices": 31,
          "material": 0,
          "mode": 4
        }
      ]
    }
  ],
  "nodes": [
    {
      "children": [
        1
      ],
      "matrix": [
        1.0,
        0.0,
        0.0,
        0.0,
        0.0,
        2.220446049250313e-16,
        -1.0,
        0.0,
        0.0,
        1.0,
        2.220446049250313e-16,
        0.0,
        0.0,
        0.0,
        0.0,
        1.0
      ],
      "name": "Sketchfab_model"
    },
    {
      "children": [
        2,
        4,
        6,
        10,
        12,
        14,
        16,
        18,
        20
      ],
      "name": "Root"
    },
    {
      "children": [
        3
      ],
      "matrix": [
        0.90359,
        -0.21762,
        0.36899000000000004,
        0.0,
        0.03585000000000001,
        0.8967400000000002,
        0.44110000000000005,
        0.0,
        -0.42689000000000005,
        -0.3853500000000001,
        0.8180900000000001,
        0.0,
        -2.63539,
        -4.27008,
        7.946060000000001,
        1.0
      ],
      "name": "Lamp.001"
    },
    {
      "name": "Lamp.001"
    },
    {
      "children": [
        5
      ],
      "matrix": [
        -1.0,
        -0.0,
        0.0,
        0.0,
        0.0,
        -1.0,
        0.0,
        0.0,
        0.0,
        0.0,
        1.0,
        0.0,
        4.23054,
        -4.1217999999999995,
        -0.30864,
        1.0
      ],
      "name": "Hemi"
    },
    {
      "name": "Hemi"
    },
    {
      "children": [
        7,
        8,
        9
      ],
      "matrix": [
        -0.6544700000000001,
        -0.0,
        0.0,
        0.0,
        0.0,
        -0.3448000000000001,
        0.0,
        0.0,
        0.0,
        0.0,
        0.6103500000000001,
        0.0,
        3.92292,
        1.72767,
        -0.11377000000000002,
        1.0
      ],
      "name": "Cube.022"
    },
    {
      "mesh": 0,
      "name": "Cube.022_0"
    },
    {
      "mesh": 1,
      "name": "Cube.022_1"
    },
    {
      "mesh": 2,
      "name": "Cube.022_2"
    },
    {
      "children": [
        11
      ],
      "matrix": [
        -21.87122,
        -1.0000000000000004e-05,
        0.0,
        0.0,
        -0.0,
        0.0,
        42.937889999999996,
        0.0,
        -1.0000000000000004e-05,
        20.664450000000002,
        -0.0,
        0.0,
        1.50629,
        2.0396399999999995,
        2.12585,
        1.0
      ],
      "name": "Area"
    },
    {
      "name": "Area"
    },
    {
      "children": [
        13
      ],
      "matrix": [
        1.0,
        0.0,
        0.0,
        0.0,
        0.0,
        1.0,
        0.0,
        0.0,
        0.0,
        0.0,
        1.0,
        0.0,
        1.13669,
        2.30603,
        17.122970000000002,
        1.0
      ],
      "name": "Cube"
    },
    {
      "mesh": 3,
      "name": "Cube_0"
    },
    {
      "children": [
        15
      ],
      "matrix": [
        1.0,
        0.0,
        0.0,
        0.0,
        0.0,
        1.0,
        0.0,
        0.0,
        0.0,
        0.0,
        1.0,
        0.0,
        1.13669,
        2.30603,
        17.122970000000002,
        1.0
      ],
      "name": "Cube.011"
    },
    {
      "mesh": 4,
      "name": "Cube.011_0"
    },
    {
      "children": [
        17
      ],
      "matrix": [
        1.0,
        0.0,
        0.0,
        0.0,
        0.0,
        1.0,
        0.0,
        0.0,
        0.0,
        0.0,
        1.0,
        0.0,
        1.13669,
        2.30603,
        17.122970000000002,
        1.0
      ],
      "name": "Cube.012"
    },
    {
      "mesh": 5,
      "name": "Cube.012_0"
    },
    {
      "children": [
        19
      ],
      "matrix": [
        1.0,
        0.0,
        0.0,
        0.0,
        0.0,
        1.0,
        0.0,
        0.0,
        0.0,
        0.0,
        1.0,
        0.0,
        1.13669,
        2.30603,
        17.122970000000002,
        1.0
      ],
      "name": "Cube.013"
    },
    {
      "mesh": 6,
      "name": "Cube.013_0"
    },
    {
      "children": [
        21
      ],
      "matrix": [
        1.0,
        0.0,
        0.0,
        0.0,
        0.0,
        1.0,
        0.0,
        0.0,
        0.0,
        0.0,
        1.0,
        0.0,
        1.13669,
        2.30603,
        17.122970000000002,
        1.0
      ],
      "name": "Cube.015"
    },
    {
      "mesh": 7,
      "name": "Cube.015_0"
    }
  ],
  "samplers": [
    {
      "magFilter": 9729,
      "minFilter": 9987,
      "wrapS": 10497,
      "wrapT": 10497
    }
  ],
  "scene": 0,
  "scenes": [
    {
      "name": "Sketchfab_Scene",
      "nodes": [
        0
      ]
    }
  ],
  "textures": [
    {
      "sampler": 0,
      "source": 0
    },
    {
      "sampler": 0,
      "source": 1
    },
    {
      "sampler": 0,
      "source": 2
    },
    {
      "sampler": 0,
      "source": 3
    },
    {
      "sampler": 0,
      "source": 4
    },
    {
      "sampler": 0,
      "source": 5
    },
    {
      "sampler": 0,
      "source": 6
    }
  ]
}
